<!-- icon666.com - MILLIONS OF FREE VECTOR ICONS --><svg viewBox="-17 0 420 420.12818" xmlns="http://www.w3.org/2000/svg"><path d="m295.765625 223.796875 54.597656 104.222656c16.785157-25.917969 27.359375-58.464843 29.527344-91.59375.445313-6.824219-4.957031-12.628906-11.796875-12.628906zm0 0" fill="#ea3457"></path><path d="m350.363281 334.847656c-.105469 0-.210937 0-.316406-.007812-2.425781-.113282-4.605469-1.5-5.730469-3.652344l-54.597656-104.226562c-1.109375-2.113282-1.03125-4.660157.207031-6.699219 1.238281-2.046875 3.449219-3.296875 5.839844-3.296875h72.328125c5.128906 0 10.085938 2.148437 13.59375 5.902344 3.519531 3.757812 5.351562 8.867187 5.015625 14.007812-2.234375 34.136719-13.105469 67.824219-30.609375 94.859375-1.265625 1.949219-3.425781 3.113281-5.730469 3.113281zm-43.316406-104.226562 43.699219 83.425781c12.675781-23.140625 20.519531-50.417969 22.328125-78.066406.09375-1.40625-.386719-2.75-1.355469-3.777344-.953125-1.023437-2.238281-1.582031-3.625-1.582031zm0 0" fill="#602f75" style="fill: rgb(76, 43, 90);"></path><path d="m319.109375 364.851562c11.929687-10.859374 22.449219-23.238281 31.253906-36.832031l-54.328125-104.222656h-61.441406c34.820312-21.101563 74.273438-53.207031 74.273438-96.082031v-120.886719s-32.96875 21.980469-43.957032 49.453125c-22.277344-25.753906-129.011718-25.574219-153.859375 0-10.992187-27.476562-43.960937-49.453125-43.960937-49.453125v82.292969c-56.058594 51.53125-80.605469 136.796875-41.042969 223.722656 16.359375 35.953125 45.4375 64.988281 81.40625 81.3125 64.390625 29.222656 127.894531 23.292969 177.414063-4.570312" fill="#fff"></path><path d="m193.578125 420.128906c-29.636719 0-59.886719-6.574218-88.941406-19.761718-37.59375-17.058594-67.710938-47.136719-84.800781-84.699219-37.0625-81.433594-21.148438-171.167969 40.429687-229.511719v-79.328125c0-2.519531 1.386719-4.832031 3.605469-6.019531 2.207031-1.191406 4.902344-1.058594 7.007812.339844 1.28125.855468 28.8125 19.40625 42.65625 44.507812 19.675782-12.394531 55.5625-16.148438 82.898438-15.339844 11.527344.332032 46.6875 2.40625 66.125 15.09375 13.890625-24.972656 41.242187-43.40625 42.523437-44.261718 2.09375-1.398438 4.785157-1.53125 7.003907-.339844 2.21875 1.1875 3.605468 3.503906 3.605468 6.019531v120.886719c0 31.574218-19.585937 61.527344-58.292968 89.253906h38.632812c2.542969 0 4.878906 1.414062 6.054688 3.675781l54.328124 104.222657c1.136719 2.179687 1.011719 4.800781-.324218 6.867187-9.097656 14.046875-19.996094 26.886719-32.390625 38.160156-2.789063 2.546875-7.105469 2.332031-9.640625-.453125-2.539063-2.789062-2.335938-7.109375.457031-9.640625 10.546875-9.601562 19.929687-20.414062 27.929687-32.191406l-50.550781-96.988281h-57.300781c-3.0625 0-5.75-2.039063-6.574219-4.992188-.824219-2.949218.417969-6.085937 3.039063-7.675781 47.097656-28.539063 70.980468-58.898437 70.980468-90.238281v-107.066406c-10.050781 8.40625-24.515624 22.472656-30.792968 38.167968-.886719 2.210938-2.859375 3.804688-5.210938 4.199219-2.351562.375-4.730468-.464844-6.292968-2.265625-8.054688-9.316406-33.058594-15.902344-63.703126-16.789062-36.332031-1.132813-69.296874 5.96875-80.09375 17.082031-1.613281 1.652343-3.945312 2.390625-6.21875 1.941406-2.273437-.457031-4.160156-2.023437-5.015624-4.167969-6.296876-15.742187-20.75-29.792968-30.796876-38.179687v68.488281c0 1.910156-.800781 3.734375-2.207031 5.023438-58.976562 54.207031-74.457031 138.941406-39.449219 215.867187 15.726563 34.554687 43.429688 62.226563 78.015626 77.925781 58.394531 26.488282 119.207031 24.972656 171.246093-4.300781 3.277344-1.867187 7.449219-.679687 9.296875 2.601563 1.847656 3.285156.683594 7.445312-2.601562 9.292968-29.097656 16.375-61.484375 24.59375-94.636719 24.59375zm0 0" fill="#602f75" style="fill: rgb(76, 43, 90);"></path><path d="m226.445312 173.007812c-3.769531 0-6.828124-3.054687-6.828124-6.828124 0-12.851563 10.457031-23.3125 23.3125-23.3125 3.769531 0 6.824218 3.054687 6.824218 6.828124 0 3.773438-3.054687 6.828126-6.824218 6.828126-5.324219 0-9.65625 4.332031-9.65625 9.65625 0 3.773437-3.058594 6.828124-6.828126 6.828124zm0 0" fill="#ea3457"></path><path d="m155.007812 173.007812c-3.769531 0-6.824218-3.054687-6.824218-6.828124 0-5.324219-4.332032-9.65625-9.65625-9.65625-3.769532 0-6.828125-3.054688-6.828125-6.828126 0-3.773437 3.058593-6.828124 6.828125-6.828124 12.851562 0 23.308594 10.460937 23.308594 23.3125 0 3.773437-3.054688 6.828124-6.828126 6.828124zm0 0" fill="#ea3457"></path><path d="m101.492188 178.503906h22.960937c8.625 0 16.507813 4.871094 20.363281 12.585938l41.992188 66.839844-88.660156-70.949219c-3.246094-3.03125-1.101563-8.476563 3.34375-8.476563zm0 0" fill="#ffe600"></path><path d="m186.808594 264.753906c-1.507813 0-3.019532-.492187-4.265625-1.492187l-88.65625-70.945313c-3.9375-3.65625-5.078125-8.707031-3.300781-13.214844 1.777343-4.511718 6.058593-7.425781 10.90625-7.425781h22.964843c11.277344 0 21.421875 6.265625 26.46875 16.359375l41.664063 66.257813c1.773437 2.820312 1.25 6.515625-1.238282 8.726562-1.289062 1.15625-2.917968 1.734375-4.542968 1.734375zm-79.828125-79.425781 52.582031 42.0625-20.523438-32.667969c-3.042968-6.011718-8.503906-9.394531-14.582031-9.394531zm0 0" fill="#602f75" style="fill: rgb(76, 43, 90);"></path><path d="m279.964844 178.503906h-22.964844c-8.621094 0-16.503906 4.871094-20.363281 12.585938l-36.171875 66.839844 82.839844-70.949219c3.246093-3.03125 1.101562-8.476563-3.339844-8.476563zm0 0" fill="#ffe600"></path><path d="m200.460938 264.753906c-1.515626 0-3.035157-.503906-4.289063-1.511718-2.5625-2.066407-3.28125-5.667969-1.714844-8.5625l36.175781-66.839844c4.945313-9.898438 15.085938-16.167969 26.367188-16.167969h22.960938c4.847656 0 9.125 2.914063 10.90625 7.421875 1.78125 4.515625.640624 9.566406-2.902344 12.875l-83.0625 71.144531c-1.277344 1.09375-2.855469 1.640625-4.441406 1.640625zm56.539062-79.425781c-6.074219 0-11.539062 3.378906-14.253906 8.8125l-18.75 34.648437 50.746094-43.460937zm22.960938 0h.066406zm0 0" fill="#602f75" style="fill: rgb(76, 43, 90);"></path><path d="m170.332031 230.621094h46.285157c3.628906 0 5.445312 4.59375 2.878906 7.28125l-23.144532 24.253906c-1.589843 1.664062-4.164062 1.664062-5.757812 0l-23.144531-24.253906c-2.558594-2.6875-.742188-7.28125 2.882812-7.28125zm0 0" fill="#ea3457"></path><path d="m193.476562 270.234375c-.003906 0-.003906 0-.007812 0-2.929688-.007813-5.777344-1.234375-7.8125-3.375l-23.144531-24.246094c-3.09375-3.238281-3.945313-8.019531-2.167969-12.164062 1.730469-4.042969 5.652344-6.652344 9.988281-6.652344h46.289063c4.339844 0 8.257812 2.609375 9.988281 6.65625 1.773437 4.148437.921875 8.921875-2.175781 12.160156l-23.140625 24.253907c-2.042969 2.140624-4.890625 3.367187-7.816407 3.367187zm-17.019531-32.785156 17.019531 17.832031 17.015626-17.832031zm40.160157 0h.066406zm0 0" fill="#602f75" style="fill: rgb(76, 43, 90);"></path><g fill="#00e7ff"><path d="m107.492188 353.667969c-1.351563 0-2.71875-.398438-3.914063-1.238281-41.925781-29.40625-66.953125-77.496094-66.953125-128.632813 0-3.773437 3.054688-6.828125 6.824219-6.828125s6.828125 3.054688 6.828125 6.828125c0 46.691406 22.855468 90.597656 61.140625 117.457031 3.089843 2.160156 3.835937 6.421875 1.671875 9.507813-1.332032 1.894531-3.445313 2.90625-5.597656 2.90625zm0 0" fill="#00e7ff"></path><path d="m193.636719 380.808594c-15.453125 0-30.707031-2.238282-45.347657-6.652344-3.609374-1.085938-5.652343-4.894531-4.566406-8.507812 1.089844-3.597657 4.902344-5.644532 8.503906-4.558594 13.359376 4.027344 27.289063 6.066406 41.410157 6.066406 3.769531 0 6.824219 3.054688 6.824219 6.828125s-3.054688 6.824219-6.824219 6.824219zm0 0" fill="#00e7ff"></path></g></svg>